<svg width="31" height="35" viewBox="0 0 31 35" fill="none" xmlns="http://www.w3.org/2000/svg">
<path d="M30.8333 15.0046V8.8952C27.9855 8.8952 25.8122 8.13153 24.4097 6.6472C22.9703 4.95319 22.1639 2.8079 22.1293 0.580824V0.139828L16.3802 0V24.8141C16.183 25.8967 15.6599 26.8925 14.8815 27.667C14.1031 28.4415 13.107 28.9575 12.0275 29.1452C10.948 29.3328 9.83722 29.1833 8.84504 28.7166C7.85286 28.25 7.02709 27.4887 6.47919 26.5356C5.9313 25.5825 5.68766 24.4835 5.78118 23.3868C5.8747 22.2902 6.30088 21.2488 7.00217 20.4033C7.70345 19.5577 8.64609 18.9486 9.70282 18.6584C10.7596 18.3681 11.8795 18.4105 12.9115 18.78V12.8642C12.3098 12.7651 11.7011 12.7148 11.0914 12.7136C8.89776 12.7136 6.75334 13.3671 4.92937 14.5916C3.10539 15.816 1.68377 17.5563 0.84429 19.5925C0.00480555 21.6286 -0.214842 23.8691 0.213124 26.0307C0.641089 28.1923 1.69745 30.1778 3.24861 31.7362C4.79977 33.2946 6.77608 34.3559 8.92761 34.7859C11.0791 35.2158 13.3093 34.9952 15.3359 34.1518C17.3626 33.3084 19.0949 31.8801 20.3136 30.0476C21.5324 28.2151 22.1829 26.0607 22.1829 23.8568C22.1817 23.4001 22.1531 22.944 22.0972 22.4908V12.649C24.7114 14.2893 27.753 15.1094 30.8333 15.0046Z" fill="#8372C8"/>
</svg>
