<svg width="43" height="35" viewBox="0 0 43 35" fill="none" xmlns="http://www.w3.org/2000/svg">
<path d="M42.9943 4.19324C41.3784 4.89425 39.6696 5.35766 37.921 5.56905C39.7658 4.46694 41.1483 2.73311 41.812 0.689199C40.0783 1.7212 38.1806 2.4483 36.2012 2.83891C34.8782 1.40413 33.1163 0.449068 31.192 0.123505C29.2676 -0.202059 27.2897 0.120295 25.5683 1.04001C23.8469 1.95973 22.4794 3.42478 21.6804 5.2054C20.8814 6.98602 20.6959 8.98149 21.1532 10.8788C17.6479 10.7016 14.2192 9.78884 11.0896 8.20001C7.96011 6.61117 5.19983 4.38175 2.9881 1.65657C2.21235 3.01125 1.80473 4.54541 1.80576 6.10648C1.80301 7.55621 2.15878 8.98413 2.8414 10.2631C3.52401 11.5421 4.51229 12.6324 5.71824 13.437C4.31658 13.3989 2.94486 13.0228 1.71977 12.3407V12.4481C1.73028 14.4794 2.44206 16.4447 3.73473 18.0115C5.0274 19.5784 6.8216 20.6507 8.81383 21.047C8.04693 21.2804 7.25072 21.4034 6.44915 21.4125C5.89428 21.406 5.3408 21.3557 4.79386 21.262C5.3612 23.0093 6.45908 24.5363 7.93476 25.6305C9.41044 26.7248 11.1905 27.3318 13.0273 27.3672C9.92567 29.8077 6.09634 31.1396 2.14972 31.1507C1.43114 31.153 0.713137 31.1099 0 31.0217C4.02949 33.6234 8.72529 35.0045 13.5217 34.9987C16.8316 35.033 20.1152 34.4075 23.1806 33.1587C26.2461 31.9098 29.032 30.0627 31.3755 27.7251C33.7191 25.3875 35.5734 22.6064 36.8301 19.5442C38.0868 16.4819 38.7208 13.2 38.6949 9.88998C38.6949 9.52453 38.6949 9.13758 38.6949 8.75063C40.3817 7.49264 41.8366 5.95047 42.9943 4.19324Z" fill="#8372C8"/>
</svg>
